<svg id="Layer_1" data-name="Layer 1" xmlns="http://www.w3.org/2000/svg" viewBox="0 0 1134 181"><defs><style>.cls-1{fill:#57cc99;}.cls-2{fill:#ffd260;}</style></defs><path class="cls-1" d="M33,103.47H90.51a53.6,53.6,0,0,1,6.45.28,15,15,0,0,1,5,1.77q5,2.63,5,14.58,0,13.08-6.92,15.32a31.44,31.44,0,0,1-9.71,1.12h-74q-13.08,0-15.32-7.1-1.12-3-1.12-9.53V16C-.1,9.67,1.08,5.35,3.44,3S10.29-.42,16.9-.42H90.51A55.81,55.81,0,0,1,97-.14a15,15,0,0,1,5,1.78q5,2.61,5,14.57,0,13.08-6.92,15.32c-2.12.75-5.35,1.12-9.71,1.12H33V51.52H70a53.38,53.38,0,0,1,6.45.29,14.74,14.74,0,0,1,5,1.77q5,2.63,5,14.57,0,13.08-7.1,15.33a31.44,31.44,0,0,1-9.71,1.12H33Z"/><path class="cls-1" d="M206.1,40.31q9.72,5.8,9.72,12.34,0,3.74-3.74,10.27L173.4,129.25a17,17,0,0,1-6,5.7,15.47,15.47,0,0,1-8.12,2.52,15.88,15.88,0,0,1-7.66-2,15,15,0,0,1-5.14-4l-1.68-2.05L106,62.92q-3.74-6.16-3.73-10.09,0-6.72,9.71-12.52c4.73-2.73,8.47-4.11,11.21-4.11a8.34,8.34,0,0,1,6.45,2.53,35.72,35.72,0,0,1,4.95,7.56L159,93.38l24.47-47.09c1.37-2.36,2.4-4.08,3.08-5.13A12.43,12.43,0,0,1,189.84,38a10.15,10.15,0,0,1,6-1.59Q199.56,36.39,206.1,40.31Z"/><path class="cls-1" d="M314.4,75.53q0,11.49-5.7,17t-12.61,5.51H251.81q0,5.24,6.16,8.78a24.49,24.49,0,0,0,12.33,3.55q10.84,0,17-2.24l2.05-.75a18.82,18.82,0,0,1,7.48-2q6,0,10.27,8.4a20.65,20.65,0,0,1,2.43,8.6q0,16.64-39.8,16.63a60,60,0,0,1-24.57-4.77q-10.74-4.75-16.72-12.61a53.76,53.76,0,0,1-11.77-33.82q0-23.53,15.23-37.65t38-14.1q26,0,38.12,18.31A38,38,0,0,1,314.4,75.53ZM275,81.05q7.09,0,7.1-6a8.46,8.46,0,0,0-3.27-6.92q-3.27-2.61-9.35-2.61t-12,4.95q-6,5-6,10.56Z"/><path class="cls-1" d="M393.43,39.19A12.69,12.69,0,0,1,399.32,43q2.32,2.71,2.33,8.69a29.49,29.49,0,0,1-3.55,13.08q-3.54,7.11-10.27,7.1a14.72,14.72,0,0,1-6.45-1.49,18.67,18.67,0,0,0-8.13-1.5,14.75,14.75,0,0,0-9.43,3.55,10.71,10.71,0,0,0-4.39,8.6v39.23a55.81,55.81,0,0,1-.28,6.45,15,15,0,0,1-1.78,5q-2.81,4.86-14.57,4.86-9,0-12.89-3.18-3-2.61-3.37-8v-71a55.81,55.81,0,0,1,.28-6.45,15.37,15.37,0,0,1,1.59-4.76q2.61-5.05,14.58-5,11.2,0,14,4.3a10.75,10.75,0,0,1,2.05,6.17,33.38,33.38,0,0,1,2.71-3.18q1.78-1.86,7.57-5t10.18-3.17a49,49,0,0,1,7.38.47A45.84,45.84,0,0,1,393.43,39.19Z"/><path class="cls-1" d="M503.48,39.19q11,4.86,11,11.77A14.09,14.09,0,0,1,513,57.32a31.34,31.34,0,0,0-1.5,3.17L462.56,170c-1,2.37-1.84,4.17-2.52,5.42a11.66,11.66,0,0,1-3.27,3.55,9.07,9.07,0,0,1-5.61,1.68q-3.36,0-9.9-2.8-11-4.86-11-11.59,0-4.47,17.93-42.78L411,60.87q-3.74-6.16-3.73-9.16,0-6,10.09-12,6.34-3.73,9.9-3.73A10.3,10.3,0,0,1,433,37.51a11.38,11.38,0,0,1,3.27,3.08q1,1.59,10.28,17.38T464.24,87.4q.94-3,10.09-23.08t9.81-21.39a19.32,19.32,0,0,1,2.15-3.18,8.1,8.1,0,0,1,6.82-3.17A26.68,26.68,0,0,1,503.48,39.19Z"/><path class="cls-1" d="M652.67,27.24a50.94,50.94,0,0,1,4.69,22,50.36,50.36,0,0,1-4.69,22,42.88,42.88,0,0,1-12.09,15.6q-15,12-31,12H587v21.11a53.41,53.41,0,0,1-.28,6.44,15.34,15.34,0,0,1-1.71,5q-2.54,5-14.07,5-12.64,0-14.8-6.91a32.4,32.4,0,0,1-1.08-9.72V16a56.31,56.31,0,0,1,.27-6.45A15.37,15.37,0,0,1,557,4.63q2.54-5.05,14.08-5h38.61q15.88,0,30.86,12A42.76,42.76,0,0,1,652.67,27.24Zm-30,34.37q5.43-4.09,5.42-12.33t-5.42-12.42a18.11,18.11,0,0,0-11.21-4.21H588.12V65.73h23.54A18,18,0,0,0,622.68,61.61Z"/><path class="cls-1" d="M759.44,75.53q0,11.49-5.7,17t-12.61,5.51H696.85q0,5.24,6.16,8.78a24.49,24.49,0,0,0,12.33,3.55q10.85,0,17-2.24l2-.75a18.82,18.82,0,0,1,7.48-2q6,0,10.27,8.4a20.65,20.65,0,0,1,2.43,8.6q0,16.64-39.8,16.63a60,60,0,0,1-24.57-4.77q-10.74-4.75-16.72-12.61a53.71,53.71,0,0,1-11.77-33.82q0-23.53,15.23-37.65T715,36q26,0,38.12,18.31A38,38,0,0,1,759.44,75.53ZM720,81.05q7.1,0,7.1-6a8.46,8.46,0,0,0-3.27-6.92q-3.27-2.61-9.35-2.61t-12,4.95q-6,5-6,10.56Z"/><path class="cls-1" d="M826.33,38.07q18.67,0,31.11,14.3t12.42,34.84V120.1a53.53,53.53,0,0,1-.28,6.44,15.42,15.42,0,0,1-1.59,4.77q-2.61,5-14.57,5-13.27,0-15.32-6.91a30.36,30.36,0,0,1-1.12-9.53V87q0-7.65-4.39-12t-11.77-4.3q-7.4,0-12,4.48T804.28,87V120.1a53.53,53.53,0,0,1-.28,6.44,13.31,13.31,0,0,1-1.78,4.77q-2.43,5-14.38,5-11.77,0-14.39-5a17.48,17.48,0,0,1-1.59-5,55.61,55.61,0,0,1-.28-6.44V53.77a53.63,53.63,0,0,1,.28-6.26,13.38,13.38,0,0,1,1.78-4.77q2.61-4.66,14.38-4.67,11.4,0,14,4.3A14.91,14.91,0,0,1,803.91,50a18.57,18.57,0,0,1,3.36-3.74,33.3,33.3,0,0,1,5-3.92A24.54,24.54,0,0,1,826.33,38.07Z"/><path class="cls-1" d="M939.55,38.07q18.69,0,31.11,14.3t12.43,34.84V120.1a53.07,53.07,0,0,1-.29,6.44,15.11,15.11,0,0,1-1.58,4.77q-2.62,5-14.58,5-13.26,0-15.32-6.91a30.36,30.36,0,0,1-1.12-9.53V87q0-7.65-4.39-12T934,70.77q-7.38,0-12,4.48A15.76,15.76,0,0,0,917.5,87V120.1a53.53,53.53,0,0,1-.28,6.44,13.27,13.27,0,0,1-1.77,4.77q-2.43,5-14.39,5-11.77,0-14.39-5a17.11,17.11,0,0,1-1.58-5,53.41,53.41,0,0,1-.28-6.44V53.77a51.48,51.48,0,0,1,.28-6.26,13.15,13.15,0,0,1,1.77-4.77q2.61-4.66,14.39-4.67,11.38,0,14,4.3A14.82,14.82,0,0,1,917.13,50a19.23,19.23,0,0,1,3.36-3.74,33.85,33.85,0,0,1,5-3.92A24.49,24.49,0,0,1,939.55,38.07Z"/><path class="cls-1" d="M1083,39.19q11,4.86,11,11.77a14.09,14.09,0,0,1-1.49,6.36,31.34,31.34,0,0,0-1.5,3.17l-49,109.49c-1,2.37-1.84,4.17-2.52,5.42a11.66,11.66,0,0,1-3.27,3.55,9.11,9.11,0,0,1-5.61,1.68q-3.36,0-9.9-2.8-11-4.86-11-11.59,0-4.47,17.94-42.78L990.49,60.87q-3.74-6.16-3.74-9.16,0-6,10.09-12,6.36-3.73,9.91-3.73a10.32,10.32,0,0,1,5.79,1.49,11.52,11.52,0,0,1,3.27,3.08q1,1.59,10.27,17.38t17.66,29.43q.93-3,10.09-23.08t9.81-21.39a18.7,18.7,0,0,1,2.15-3.18,8.09,8.09,0,0,1,6.82-3.17A26.72,26.72,0,0,1,1083,39.19Z"/><circle class="cls-2" cx="1115" cy="117" r="19"/></svg>